<?xml version="1.0" encoding="utf-8" standalone="no"?>
<!DOCTYPE svg PUBLIC "-//W3C//DTD SVG 1.1//EN"
  "http://www.w3.org/Graphics/SVG/1.1/DTD/svg11.dtd">
<svg xmlns:xlink="http://www.w3.org/1999/xlink" width="707.320938pt" height="223.20778pt" viewBox="0 0 707.320938 223.20778" xmlns="http://www.w3.org/2000/svg" version="1.1">
 <metadata>
  <rdf:RDF xmlns:dc="http://purl.org/dc/elements/1.1/" xmlns:cc="http://creativecommons.org/ns#" xmlns:rdf="http://www.w3.org/1999/02/22-rdf-syntax-ns#">
   <cc:Work>
    <dc:type rdf:resource="http://purl.org/dc/dcmitype/StillImage"/>
    <dc:date>2026-10-01T19:18:20.149930</dc:date>
    <dc:format>image/svg+xml</dc:format>
    <dc:creator>
     <cc:Agent>
      <dc:title>Matplotlib v3.11.2, https://matplotlib.org/</dc:title>
     </cc:Agent>
    </dc:creator>
   </cc:Work>
  </rdf:RDF>
 </metadata>
 <defs>
  <style type="text/css">*{stroke-linejoin: round; stroke-linecap: butt}</style>
 </defs>
 <g id="figure_1">
  <g id="patch_1">
   <path d="M 0 223.20778 
L 707.320938 223.20778 
L 707.320938 0 
L 0 0 
z
" style="fill: #ffffff"/>
  </g>
  <g id="axes_1">
   <g id="patch_2">
    <path d="M 29.523281 166.423196 
L 322.742069 166.423196 
L 322.742069 2.16 
L 29.523281 2.16 
z
" style="fill: #ffffff"/>
   </g>
   <g id="matplotlib.axis_1">
    <g id="xtick_1">
     <g id="line2d_1">
      <defs>
       <path id="m0e24c3ece5" d="M 0 0 
L 0 3.5 
" style="stroke: #000000; stroke-width: 0.8"/>
      </defs>
      <g>
       <use xlink:href="#m0e24c3ece5" x="50.832322" y="166.423196" style="stroke: #000000; stroke-width: 0.8"/>
      </g>
     </g>
     <g id="text_1">
      <!-- 2010-02-07 -->
      <g transform="translate(25.594817 204.869736) rotate(-25) scale(0.1 -0.1)">
       <defs>
        <path id="DejaVuSans-15" d="M 1228 531 
L 3431 531 
L 3431 0 
L 469 0 
L 469 531 
Q 828 903 1448 1529 
Q 2069 2156 2228 2338 
Q 2531 2678 2651 2914 
Q 2772 3150 2772 3378 
Q 2772 3750 2511 3984 
Q 2250 4219 1831 4219 
Q 1534 4219 1204 4116 
Q 875 4013 500 3803 
L 500 4441 
Q 881 4594 1212 4672 
Q 1544 4750 1819 4750 
Q 2544 4750 2975 4387 
Q 3406 4025 3406 3419 
Q 3406 3131 3298 2873 
Q 3191 2616 2906 2266 
Q 2828 2175 2409 1742 
Q 1991 1309 1228 531 
z
" transform="scale(0.015625)"/>
        <path id="DejaVuSans-13" d="M 2034 4250 
Q 1547 4250 1301 3770 
Q 1056 3291 1056 2328 
Q 1056 1369 1301 889 
Q 1547 409 2034 409 
Q 2525 409 2770 889 
Q 3016 1369 3016 2328 
Q 3016 3291 2770 3770 
Q 2525 4250 2034 4250 
z
M 2034 4750 
Q 2819 4750 3233 4129 
Q 3647 3509 3647 2328 
Q 3647 1150 3233 529 
Q 2819 -91 2034 -91 
Q 1250 -91 836 529 
Q 422 1150 422 2328 
Q 422 3509 836 4129 
Q 1250 4750 2034 4750 
z
" transform="scale(0.015625)"/>
        <path id="DejaVuSans-14" d="M 794 531 
L 1825 531 
L 1825 4091 
L 703 3866 
L 703 4441 
L 1819 4666 
L 2450 4666 
L 2450 531 
L 3481 531 
L 3481 0 
L 794 0 
L 794 531 
z
" transform="scale(0.015625)"/>
        <path id="DejaVuSans-10" d="M 313 2009 
L 1997 2009 
L 1997 1497 
L 313 1497 
L 313 2009 
z
" transform="scale(0.015625)"/>
        <path id="DejaVuSans-1a" d="M 525 4666 
L 3525 4666 
L 3525 4397 
L 1831 0 
L 1172 0 
L 2766 4134 
L 525 4134 
L 525 4666 
z
" transform="scale(0.015625)"/>
       </defs>
       <use xlink:href="#DejaVuSans-15"/>
       <use xlink:href="#DejaVuSans-13" transform="translate(63.625 0)"/>
       <use xlink:href="#DejaVuSans-14" transform="translate(127.25 0)"/>
       <use xlink:href="#DejaVuSans-13" transform="translate(190.875 0)"/>
       <use xlink:href="#DejaVuSans-10" transform="translate(254.5 0)"/>
       <use xlink:href="#DejaVuSans-13" transform="translate(290.578125 0)"/>
       <use xlink:href="#DejaVuSans-15" transform="translate(354.203125 0)"/>
       <use xlink:href="#DejaVuSans-10" transform="translate(417.828125 0)"/>
       <use xlink:href="#DejaVuSans-13" transform="translate(453.90625 0)"/>
       <use xlink:href="#DejaVuSans-1a" transform="translate(517.53125 0)"/>
      </g>
     </g>
    </g>
    <g id="xtick_2">
     <g id="line2d_2">
      <g>
       <use xlink:href="#m0e24c3ece5" x="89.14071" y="166.423196" style="stroke: #000000; stroke-width: 0.8"/>
      </g>
     </g>
     <g id="text_2">
      <!-- 2010-02-08 -->
      <g transform="translate(63.903206 204.869736) rotate(-25) scale(0.1 -0.1)">
       <defs>
        <path id="DejaVuSans-1b" d="M 2034 2216 
Q 1584 2216 1326 1975 
Q 1069 1734 1069 1313 
Q 1069 891 1326 650 
Q 1584 409 2034 409 
Q 2484 409 2743 651 
Q 3003 894 3003 1313 
Q 3003 1734 2745 1975 
Q 2488 2216 2034 2216 
z
M 1403 2484 
Q 997 2584 770 2862 
Q 544 3141 544 3541 
Q 544 4100 942 4425 
Q 1341 4750 2034 4750 
Q 2731 4750 3128 4425 
Q 3525 4100 3525 3541 
Q 3525 3141 3298 2862 
Q 3072 2584 2669 2484 
Q 3125 2378 3379 2068 
Q 3634 1759 3634 1313 
Q 3634 634 3220 271 
Q 2806 -91 2034 -91 
Q 1263 -91 848 271 
Q 434 634 434 1313 
Q 434 1759 690 2068 
Q 947 2378 1403 2484 
z
M 1172 3481 
Q 1172 3119 1398 2916 
Q 1625 2713 2034 2713 
Q 2441 2713 2670 2916 
Q 2900 3119 2900 3481 
Q 2900 3844 2670 4047 
Q 2441 4250 2034 4250 
Q 1625 4250 1398 4047 
Q 1172 3844 1172 3481 
z
" transform="scale(0.015625)"/>
       </defs>
       <use xlink:href="#DejaVuSans-15"/>
       <use xlink:href="#DejaVuSans-13" transform="translate(63.625 0)"/>
       <use xlink:href="#DejaVuSans-14" transform="translate(127.25 0)"/>
       <use xlink:href="#DejaVuSans-13" transform="translate(190.875 0)"/>
       <use xlink:href="#DejaVuSans-10" transform="translate(254.5 0)"/>
       <use xlink:href="#DejaVuSans-13" transform="translate(290.578125 0)"/>
       <use xlink:href="#DejaVuSans-15" transform="translate(354.203125 0)"/>
       <use xlink:href="#DejaVuSans-10" transform="translate(417.828125 0)"/>
       <use xlink:href="#DejaVuSans-13" transform="translate(453.90625 0)"/>
       <use xlink:href="#DejaVuSans-1b" transform="translate(517.53125 0)"/>
      </g>
     </g>
    </g>
    <g id="xtick_3">
     <g id="line2d_3">
      <g>
       <use xlink:href="#m0e24c3ece5" x="127.449099" y="166.423196" style="stroke: #000000; stroke-width: 0.8"/>
      </g>
     </g>
     <g id="text_3">
      <!-- 2010-02-09 -->
      <g transform="translate(102.211594 204.869736) rotate(-25) scale(0.1 -0.1)">
       <defs>
        <path id="DejaVuSans-1c" d="M 703 97 
L 703 672 
Q 941 559 1184 500 
Q 1428 441 1663 441 
Q 2288 441 2617 861 
Q 2947 1281 2994 2138 
Q 2813 1869 2534 1725 
Q 2256 1581 1919 1581 
Q 1219 1581 811 2004 
Q 403 2428 403 3163 
Q 403 3881 828 4315 
Q 1253 4750 1959 4750 
Q 2769 4750 3195 4129 
Q 3622 3509 3622 2328 
Q 3622 1225 3098 567 
Q 2575 -91 1691 -91 
Q 1453 -91 1209 -44 
Q 966 3 703 97 
z
M 1959 2075 
Q 2384 2075 2632 2365 
Q 2881 2656 2881 3163 
Q 2881 3666 2632 3958 
Q 2384 4250 1959 4250 
Q 1534 4250 1286 3958 
Q 1038 3666 1038 3163 
Q 1038 2656 1286 2365 
Q 1534 2075 1959 2075 
z
" transform="scale(0.015625)"/>
       </defs>
       <use xlink:href="#DejaVuSans-15"/>
       <use xlink:href="#DejaVuSans-13" transform="translate(63.625 0)"/>
       <use xlink:href="#DejaVuSans-14" transform="translate(127.25 0)"/>
       <use xlink:href="#DejaVuSans-13" transform="translate(190.875 0)"/>
       <use xlink:href="#DejaVuSans-10" transform="translate(254.5 0)"/>
       <use xlink:href="#DejaVuSans-13" transform="translate(290.578125 0)"/>
       <use xlink:href="#DejaVuSans-15" transform="translate(354.203125 0)"/>
       <use xlink:href="#DejaVuSans-10" transform="translate(417.828125 0)"/>
       <use xlink:href="#DejaVuSans-13" transform="translate(453.90625 0)"/>
       <use xlink:href="#DejaVuSans-1c" transform="translate(517.53125 0)"/>
      </g>
     </g>
    </g>
    <g id="xtick_4">
     <g id="line2d_4">
      <g>
       <use xlink:href="#m0e24c3ece5" x="165.757487" y="166.423196" style="stroke: #000000; stroke-width: 0.8"/>
      </g>
     </g>
     <g id="text_4">
      <!-- 2010-02-10 -->
      <g transform="translate(140.519982 204.869736) rotate(-25) scale(0.1 -0.1)">
       <use xlink:href="#DejaVuSans-15"/>
       <use xlink:href="#DejaVuSans-13" transform="translate(63.625 0)"/>
       <use xlink:href="#DejaVuSans-14" transform="translate(127.25 0)"/>
       <use xlink:href="#DejaVuSans-13" transform="translate(190.875 0)"/>
       <use xlink:href="#DejaVuSans-10" transform="translate(254.5 0)"/>
       <use xlink:href="#DejaVuSans-13" transform="translate(290.578125 0)"/>
       <use xlink:href="#DejaVuSans-15" transform="translate(354.203125 0)"/>
       <use xlink:href="#DejaVuSans-10" transform="translate(417.828125 0)"/>
       <use xlink:href="#DejaVuSans-14" transform="translate(453.90625 0)"/>
       <use xlink:href="#DejaVuSans-13" transform="translate(517.53125 0)"/>
      </g>
     </g>
    </g>
    <g id="xtick_5">
     <g id="line2d_5">
      <g>
       <use xlink:href="#m0e24c3ece5" x="204.065875" y="166.423196" style="stroke: #000000; stroke-width: 0.8"/>
      </g>
     </g>
     <g id="text_5">
      <!-- 2010-02-11 -->
      <g transform="translate(178.82837 204.869736) rotate(-25) scale(0.1 -0.1)">
       <use xlink:href="#DejaVuSans-15"/>
       <use xlink:href="#DejaVuSans-13" transform="translate(63.625 0)"/>
       <use xlink:href="#DejaVuSans-14" transform="translate(127.25 0)"/>
       <use xlink:href="#DejaVuSans-13" transform="translate(190.875 0)"/>
       <use xlink:href="#DejaVuSans-10" transform="translate(254.5 0)"/>
       <use xlink:href="#DejaVuSans-13" transform="translate(290.578125 0)"/>
       <use xlink:href="#DejaVuSans-15" transform="translate(354.203125 0)"/>
       <use xlink:href="#DejaVuSans-10" transform="translate(417.828125 0)"/>
       <use xlink:href="#DejaVuSans-14" transform="translate(453.90625 0)"/>
       <use xlink:href="#DejaVuSans-14" transform="translate(517.53125 0)"/>
      </g>
     </g>
    </g>
    <g id="xtick_6">
     <g id="line2d_6">
      <g>
       <use xlink:href="#m0e24c3ece5" x="242.374263" y="166.423196" style="stroke: #000000; stroke-width: 0.8"/>
      </g>
     </g>
     <g id="text_6">
      <!-- 2010-02-12 -->
      <g transform="translate(217.136759 204.869736) rotate(-25) scale(0.1 -0.1)">
       <use xlink:href="#DejaVuSans-15"/>
       <use xlink:href="#DejaVuSans-13" transform="translate(63.625 0)"/>
       <use xlink:href="#DejaVuSans-14" transform="translate(127.25 0)"/>
       <use xlink:href="#DejaVuSans-13" transform="translate(190.875 0)"/>
       <use xlink:href="#DejaVuSans-10" transform="translate(254.5 0)"/>
       <use xlink:href="#DejaVuSans-13" transform="translate(290.578125 0)"/>
       <use xlink:href="#DejaVuSans-15" transform="translate(354.203125 0)"/>
       <use xlink:href="#DejaVuSans-10" transform="translate(417.828125 0)"/>
       <use xlink:href="#DejaVuSans-14" transform="translate(453.90625 0)"/>
       <use xlink:href="#DejaVuSans-15" transform="translate(517.53125 0)"/>
      </g>
     </g>
    </g>
    <g id="xtick_7">
     <g id="line2d_7">
      <g>
       <use xlink:href="#m0e24c3ece5" x="280.682652" y="166.423196" style="stroke: #000000; stroke-width: 0.8"/>
      </g>
     </g>
     <g id="text_7">
      <!-- 2010-02-13 -->
      <g transform="translate(255.445147 204.869736) rotate(-25) scale(0.1 -0.1)">
       <defs>
        <path id="DejaVuSans-16" d="M 2597 2516 
Q 3050 2419 3304 2112 
Q 3559 1806 3559 1356 
Q 3559 666 3084 287 
Q 2609 -91 1734 -91 
Q 1441 -91 1130 -33 
Q 819 25 488 141 
L 488 750 
Q 750 597 1062 519 
Q 1375 441 1716 441 
Q 2309 441 2620 675 
Q 2931 909 2931 1356 
Q 2931 1769 2642 2001 
Q 2353 2234 1838 2234 
L 1294 2234 
L 1294 2753 
L 1863 2753 
Q 2328 2753 2575 2939 
Q 2822 3125 2822 3475 
Q 2822 3834 2567 4026 
Q 2313 4219 1838 4219 
Q 1578 4219 1281 4162 
Q 984 4106 628 3988 
L 628 4550 
Q 988 4650 1302 4700 
Q 1616 4750 1894 4750 
Q 2613 4750 3031 4423 
Q 3450 4097 3450 3541 
Q 3450 3153 3228 2886 
Q 3006 2619 2597 2516 
z
" transform="scale(0.015625)"/>
       </defs>
       <use xlink:href="#DejaVuSans-15"/>
       <use xlink:href="#DejaVuSans-13" transform="translate(63.625 0)"/>
       <use xlink:href="#DejaVuSans-14" transform="translate(127.25 0)"/>
       <use xlink:href="#DejaVuSans-13" transform="translate(190.875 0)"/>
       <use xlink:href="#DejaVuSans-10" transform="translate(254.5 0)"/>
       <use xlink:href="#DejaVuSans-13" transform="translate(290.578125 0)"/>
       <use xlink:href="#DejaVuSans-15" transform="translate(354.203125 0)"/>
       <use xlink:href="#DejaVuSans-10" transform="translate(417.828125 0)"/>
       <use xlink:href="#DejaVuSans-14" transform="translate(453.90625 0)"/>
       <use xlink:href="#DejaVuSans-16" transform="translate(517.53125 0)"/>
      </g>
     </g>
    </g>
    <g id="xtick_8">
     <g id="line2d_8">
      <g>
       <use xlink:href="#m0e24c3ece5" x="318.99104" y="166.423196" style="stroke: #000000; stroke-width: 0.8"/>
      </g>
     </g>
     <g id="text_8">
      <!-- 2010-02-14 -->
      <g transform="translate(293.753535 204.869736) rotate(-25) scale(0.1 -0.1)">
       <defs>
        <path id="DejaVuSans-17" d="M 2419 4116 
L 825 1625 
L 2419 1625 
L 2419 4116 
z
M 2253 4666 
L 3047 4666 
L 3047 1625 
L 3713 1625 
L 3713 1100 
L 3047 1100 
L 3047 0 
L 2419 0 
L 2419 1100 
L 313 1100 
L 313 1709 
L 2253 4666 
z
" transform="scale(0.015625)"/>
       </defs>
       <use xlink:href="#DejaVuSans-15"/>
       <use xlink:href="#DejaVuSans-13" transform="translate(63.625 0)"/>
       <use xlink:href="#DejaVuSans-14" transform="translate(127.25 0)"/>
       <use xlink:href="#DejaVuSans-13" transform="translate(190.875 0)"/>
       <use xlink:href="#DejaVuSans-10" transform="translate(254.5 0)"/>
       <use xlink:href="#DejaVuSans-13" transform="translate(290.578125 0)"/>
       <use xlink:href="#DejaVuSans-15" transform="translate(354.203125 0)"/>
       <use xlink:href="#DejaVuSans-10" transform="translate(417.828125 0)"/>
       <use xlink:href="#DejaVuSans-14" transform="translate(453.90625 0)"/>
       <use xlink:href="#DejaVuSans-17" transform="translate(517.53125 0)"/>
      </g>
     </g>
    </g>
    <g id="text_9">
     <!-- Time -->
     <g transform="translate(163.896738 218.645436) scale(0.1 -0.1)">
      <defs>
       <path id="DejaVuSans-37" d="M -19 4666 
L 3928 4666 
L 3928 4134 
L 2272 4134 
L 2272 0 
L 1638 0 
L 1638 4134 
L -19 4134 
L -19 4666 
z
" transform="scale(0.015625)"/>
       <path id="DejaVuSans-4c" d="M 603 3500 
L 1178 3500 
L 1178 0 
L 603 0 
L 603 3500 
z
M 603 4863 
L 1178 4863 
L 1178 4134 
L 603 4134 
L 603 4863 
z
" transform="scale(0.015625)"/>
       <path id="DejaVuSans-50" d="M 3328 2828 
Q 3544 3216 3844 3400 
Q 4144 3584 4550 3584 
Q 5097 3584 5394 3201 
Q 5691 2819 5691 2113 
L 5691 0 
L 5113 0 
L 5113 2094 
Q 5113 2597 4934 2840 
Q 4756 3084 4391 3084 
Q 3944 3084 3684 2787 
Q 3425 2491 3425 1978 
L 3425 0 
L 2847 0 
L 2847 2094 
Q 2847 2600 2669 2842 
Q 2491 3084 2119 3084 
Q 1678 3084 1418 2786 
Q 1159 2488 1159 1978 
L 1159 0 
L 581 0 
L 581 3500 
L 1159 3500 
L 1159 2956 
Q 1356 3278 1631 3431 
Q 1906 3584 2284 3584 
Q 2666 3584 2933 3390 
Q 3200 3197 3328 2828 
z
" transform="scale(0.015625)"/>
       <path id="DejaVuSans-48" d="M 3597 1894 
L 3597 1613 
L 953 1613 
Q 991 1019 1311 708 
Q 1631 397 2203 397 
Q 2534 397 2845 478 
Q 3156 559 3463 722 
L 3463 178 
Q 3153 47 2828 -22 
Q 2503 -91 2169 -91 
Q 1331 -91 842 396 
Q 353 884 353 1716 
Q 353 2575 817 3079 
Q 1281 3584 2069 3584 
Q 2775 3584 3186 3129 
Q 3597 2675 3597 1894 
z
M 3022 2063 
Q 3016 2534 2758 2815 
Q 2500 3097 2075 3097 
Q 1594 3097 1305 2825 
Q 1016 2553 972 2059 
L 3022 2063 
z
" transform="scale(0.015625)"/>
      </defs>
      <use xlink:href="#DejaVuSans-37"/>
      <use xlink:href="#DejaVuSans-4c" transform="translate(58 0)"/>
      <use xlink:href="#DejaVuSans-50" transform="translate(85.78125 0)"/>
      <use xlink:href="#DejaVuSans-48" transform="translate(183.1875 0)"/>
     </g>
    </g>
   </g>
   <g id="matplotlib.axis_2">
    <g id="ytick_1">
     <g id="line2d_9">
      <defs>
       <path id="m90ab23086f" d="M 0 0 
L -3.5 0 
" style="stroke: #000000; stroke-width: 0.8"/>
      </defs>
      <g>
       <use xlink:href="#m90ab23086f" x="29.523281" y="131.563246" style="stroke: #000000; stroke-width: 0.8"/>
      </g>
     </g>
     <g id="text_10">
      <!-- 1 -->
      <g transform="translate(16.160781 135.362074) scale(0.1 -0.1)">
       <use xlink:href="#DejaVuSans-14"/>
      </g>
     </g>
    </g>
    <g id="ytick_2">
     <g id="line2d_10">
      <g>
       <use xlink:href="#m90ab23086f" x="29.523281" y="93.145067" style="stroke: #000000; stroke-width: 0.8"/>
      </g>
     </g>
     <g id="text_11">
      <!-- 2 -->
      <g transform="translate(16.160781 96.943895) scale(0.1 -0.1)">
       <use xlink:href="#DejaVuSans-15"/>
      </g>
     </g>
    </g>
    <g id="ytick_3">
     <g id="line2d_11">
      <g>
       <use xlink:href="#m90ab23086f" x="29.523281" y="54.726889" style="stroke: #000000; stroke-width: 0.8"/>
      </g>
     </g>
     <g id="text_12">
      <!-- 3 -->
      <g transform="translate(16.160781 58.525717) scale(0.1 -0.1)">
       <use xlink:href="#DejaVuSans-16"/>
      </g>
     </g>
    </g>
    <g id="ytick_4">
     <g id="line2d_12">
      <g>
       <use xlink:href="#m90ab23086f" x="29.523281" y="16.308711" style="stroke: #000000; stroke-width: 0.8"/>
      </g>
     </g>
     <g id="text_13">
      <!-- 4 -->
      <g transform="translate(16.160781 20.107539) scale(0.1 -0.1)">
       <use xlink:href="#DejaVuSans-17"/>
      </g>
     </g>
    </g>
    <g id="text_14">
     <!-- Hourly mean active power (kW) -->
     <g transform="translate(9.758438 163.613473) rotate(-90) scale(0.1 -0.1)">
      <defs>
       <path id="DejaVuSans-2b" d="M 628 4666 
L 1259 4666 
L 1259 2753 
L 3553 2753 
L 3553 4666 
L 4184 4666 
L 4184 0 
L 3553 0 
L 3553 2222 
L 1259 2222 
L 1259 0 
L 628 0 
L 628 4666 
z
" transform="scale(0.015625)"/>
       <path id="DejaVuSans-52" d="M 1959 3097 
Q 1497 3097 1228 2736 
Q 959 2375 959 1747 
Q 959 1119 1226 758 
Q 1494 397 1959 397 
Q 2419 397 2687 759 
Q 2956 1122 2956 1747 
Q 2956 2369 2687 2733 
Q 2419 3097 1959 3097 
z
M 1959 3584 
Q 2709 3584 3137 3096 
Q 3566 2609 3566 1747 
Q 3566 888 3137 398 
Q 2709 -91 1959 -91 
Q 1206 -91 779 398 
Q 353 888 353 1747 
Q 353 2609 779 3096 
Q 1206 3584 1959 3584 
z
" transform="scale(0.015625)"/>
       <path id="DejaVuSans-58" d="M 544 1381 
L 544 3500 
L 1119 3500 
L 1119 1403 
Q 1119 906 1312 657 
Q 1506 409 1894 409 
Q 2359 409 2629 706 
Q 2900 1003 2900 1516 
L 2900 3500 
L 3475 3500 
L 3475 0 
L 2900 0 
L 2900 538 
Q 2691 219 2414 64 
Q 2138 -91 1772 -91 
Q 1169 -91 856 284 
Q 544 659 544 1381 
z
M 1991 3584 
L 1991 3584 
z
" transform="scale(0.015625)"/>
       <path id="DejaVuSans-55" d="M 2631 2963 
Q 2534 3019 2420 3045 
Q 2306 3072 2169 3072 
Q 1681 3072 1420 2755 
Q 1159 2438 1159 1844 
L 1159 0 
L 581 0 
L 581 3500 
L 1159 3500 
L 1159 2956 
Q 1341 3275 1631 3429 
Q 1922 3584 2338 3584 
Q 2397 3584 2469 3576 
Q 2541 3569 2628 3553 
L 2631 2963 
z
" transform="scale(0.015625)"/>
       <path id="DejaVuSans-4f" d="M 603 4863 
L 1178 4863 
L 1178 0 
L 603 0 
L 603 4863 
z
" transform="scale(0.015625)"/>
       <path id="DejaVuSans-5c" d="M 2059 -325 
Q 1816 -950 1584 -1140 
Q 1353 -1331 966 -1331 
L 506 -1331 
L 506 -850 
L 844 -850 
Q 1081 -850 1212 -737 
Q 1344 -625 1503 -206 
L 1606 56 
L 191 3500 
L 800 3500 
L 1894 763 
L 2988 3500 
L 3597 3500 
L 2059 -325 
z
" transform="scale(0.015625)"/>
       <path id="DejaVuSans-3" transform="scale(0.015625)"/>
       <path id="DejaVuSans-44" d="M 2194 1759 
Q 1497 1759 1228 1600 
Q 959 1441 959 1056 
Q 959 750 1161 570 
Q 1363 391 1709 391 
Q 2188 391 2477 730 
Q 2766 1069 2766 1631 
L 2766 1759 
L 2194 1759 
z
M 3341 1997 
L 3341 0 
L 2766 0 
L 2766 531 
Q 2569 213 2275 61 
Q 1981 -91 1556 -91 
Q 1019 -91 701 211 
Q 384 513 384 1019 
Q 384 1609 779 1909 
Q 1175 2209 1959 2209 
L 2766 2209 
L 2766 2266 
Q 2766 2663 2505 2880 
Q 2244 3097 1772 3097 
Q 1472 3097 1187 3025 
Q 903 2953 641 2809 
L 641 3341 
Q 956 3463 1253 3523 
Q 1550 3584 1831 3584 
Q 2591 3584 2966 3190 
Q 3341 2797 3341 1997 
z
" transform="scale(0.015625)"/>
       <path id="DejaVuSans-51" d="M 3513 2113 
L 3513 0 
L 2938 0 
L 2938 2094 
Q 2938 2591 2744 2837 
Q 2550 3084 2163 3084 
Q 1697 3084 1428 2787 
Q 1159 2491 1159 1978 
L 1159 0 
L 581 0 
L 581 3500 
L 1159 3500 
L 1159 2956 
Q 1366 3272 1645 3428 
Q 1925 3584 2291 3584 
Q 2894 3584 3203 3211 
Q 3513 2838 3513 2113 
z
" transform="scale(0.015625)"/>
       <path id="DejaVuSans-46" d="M 3122 3366 
L 3122 2828 
Q 2878 2963 2633 3030 
Q 2388 3097 2138 3097 
Q 1578 3097 1268 2742 
Q 959 2388 959 1747 
Q 959 1106 1268 751 
Q 1578 397 2138 397 
Q 2388 397 2633 464 
Q 2878 531 3122 666 
L 3122 134 
Q 2881 22 2623 -34 
Q 2366 -91 2075 -91 
Q 1284 -91 818 406 
Q 353 903 353 1747 
Q 353 2603 823 3093 
Q 1294 3584 2113 3584 
Q 2378 3584 2631 3529 
Q 2884 3475 3122 3366 
z
" transform="scale(0.015625)"/>
       <path id="DejaVuSans-57" d="M 1172 4494 
L 1172 3500 
L 2356 3500 
L 2356 3053 
L 1172 3053 
L 1172 1153 
Q 1172 725 1289 603 
Q 1406 481 1766 481 
L 2356 481 
L 2356 0 
L 1766 0 
Q 1100 0 847 248 
Q 594 497 594 1153 
L 594 3053 
L 172 3053 
L 172 3500 
L 594 3500 
L 594 4494 
L 1172 4494 
z
" transform="scale(0.015625)"/>
       <path id="DejaVuSans-59" d="M 191 3500 
L 800 3500 
L 1894 563 
L 2988 3500 
L 3597 3500 
L 2284 0 
L 1503 0 
L 191 3500 
z
" transform="scale(0.015625)"/>
       <path id="DejaVuSans-53" d="M 1159 525 
L 1159 -1331 
L 581 -1331 
L 581 3500 
L 1159 3500 
L 1159 2969 
Q 1341 3281 1617 3432 
Q 1894 3584 2278 3584 
Q 2916 3584 3314 3078 
Q 3713 2572 3713 1747 
Q 3713 922 3314 415 
Q 2916 -91 2278 -91 
Q 1894 -91 1617 61 
Q 1341 213 1159 525 
z
M 3116 1747 
Q 3116 2381 2855 2742 
Q 2594 3103 2138 3103 
Q 1681 3103 1420 2742 
Q 1159 2381 1159 1747 
Q 1159 1113 1420 752 
Q 1681 391 2138 391 
Q 2594 391 2855 752 
Q 3116 1113 3116 1747 
z
" transform="scale(0.015625)"/>
       <path id="DejaVuSans-5a" d="M 269 3500 
L 844 3500 
L 1563 769 
L 2278 3500 
L 2956 3500 
L 3675 769 
L 4391 3500 
L 4966 3500 
L 4050 0 
L 3372 0 
L 2619 2869 
L 1863 0 
L 1184 0 
L 269 3500 
z
" transform="scale(0.015625)"/>
       <path id="DejaVuSans-b" d="M 1984 4856 
Q 1566 4138 1362 3434 
Q 1159 2731 1159 2009 
Q 1159 1288 1364 580 
Q 1569 -128 1984 -844 
L 1484 -844 
Q 1016 -109 783 600 
Q 550 1309 550 2009 
Q 550 2706 781 3412 
Q 1013 4119 1484 4856 
L 1984 4856 
z
" transform="scale(0.015625)"/>
       <path id="DejaVuSans-4e" d="M 581 4863 
L 1159 4863 
L 1159 1991 
L 2875 3500 
L 3609 3500 
L 1753 1863 
L 3688 0 
L 2938 0 
L 1159 1709 
L 1159 0 
L 581 0 
L 581 4863 
z
" transform="scale(0.015625)"/>
       <path id="DejaVuSans-3a" d="M 213 4666 
L 850 4666 
L 1831 722 
L 2809 4666 
L 3519 4666 
L 4500 722 
L 5478 4666 
L 6119 4666 
L 4947 0 
L 4153 0 
L 3169 4050 
L 2175 0 
L 1381 0 
L 213 4666 
z
" transform="scale(0.015625)"/>
       <path id="DejaVuSans-c" d="M 513 4856 
L 1013 4856 
Q 1481 4119 1714 3412 
Q 1947 2706 1947 2009 
Q 1947 1309 1714 600 
Q 1481 -109 1013 -844 
L 513 -844 
Q 928 -128 1133 580 
Q 1338 1288 1338 2009 
Q 1338 2731 1133 3434 
Q 928 4138 513 4856 
z
" transform="scale(0.015625)"/>
      </defs>
      <use xlink:href="#DejaVuSans-2b"/>
      <use xlink:href="#DejaVuSans-52" transform="translate(75.203125 0)"/>
      <use xlink:href="#DejaVuSans-58" transform="translate(136.390625 0)"/>
      <use xlink:href="#DejaVuSans-55" transform="translate(199.765625 0)"/>
      <use xlink:href="#DejaVuSans-4f" transform="translate(240.875 0)"/>
      <use xlink:href="#DejaVuSans-5c" transform="translate(268.65625 0)"/>
      <use xlink:href="#DejaVuSans-3" transform="translate(327.84375 0)"/>
      <use xlink:href="#DejaVuSans-50" transform="translate(359.625 0)"/>
      <use xlink:href="#DejaVuSans-48" transform="translate(457.03125 0)"/>
      <use xlink:href="#DejaVuSans-44" transform="translate(518.5625 0)"/>
      <use xlink:href="#DejaVuSans-51" transform="translate(579.84375 0)"/>
      <use xlink:href="#DejaVuSans-3" transform="translate(643.21875 0)"/>
      <use xlink:href="#DejaVuSans-44" transform="translate(675 0)"/>
      <use xlink:href="#DejaVuSans-46" transform="translate(736.28125 0)"/>
      <use xlink:href="#DejaVuSans-57" transform="translate(791.265625 0)"/>
      <use xlink:href="#DejaVuSans-4c" transform="translate(830.46875 0)"/>
      <use xlink:href="#DejaVuSans-59" transform="translate(858.25 0)"/>
      <use xlink:href="#DejaVuSans-48" transform="translate(917.4375 0)"/>
      <use xlink:href="#DejaVuSans-3" transform="translate(978.96875 0)"/>
      <use xlink:href="#DejaVuSans-53" transform="translate(1010.75 0)"/>
      <use xlink:href="#DejaVuSans-52" transform="translate(1074.234375 0)"/>
      <use xlink:href="#DejaVuSans-5a" transform="translate(1135.421875 0)"/>
      <use xlink:href="#DejaVuSans-48" transform="translate(1217.203125 0)"/>
      <use xlink:href="#DejaVuSans-55" transform="translate(1278.734375 0)"/>
      <use xlink:href="#DejaVuSans-3" transform="translate(1319.84375 0)"/>
      <use xlink:href="#DejaVuSans-b" transform="translate(1351.625 0)"/>
      <use xlink:href="#DejaVuSans-4e" transform="translate(1390.640625 0)"/>
      <use xlink:href="#DejaVuSans-3a" transform="translate(1448.546875 0)"/>
      <use xlink:href="#DejaVuSans-c" transform="translate(1547.421875 0)"/>
     </g>
    </g>
   </g>
   <g id="line2d_13">
    <path d="M 42.851408 22.455619 
L 44.447591 71.69876 
L 46.043774 55.176382 
L 47.639957 60.524192 
L 49.236139 36.482096 
L 50.832322 129.308099 
L 52.428505 131.162416 
L 54.024688 132.448144 
L 55.620871 151.863411 
L 57.217054 157.686326 
L 58.813236 157.444292 
L 60.409419 157.915555 
L 62.005602 157.838718 
L 63.601785 110.725226 
L 65.197968 117.202531 
L 66.794151 85.840491 
L 68.390333 144.834165 
L 69.986516 158.228023 
L 71.582699 157.133104 
L 73.178882 127.721428 
L 74.775065 108.814562 
L 76.371248 141.621125 
L 77.967431 118.664983 
L 79.563613 76.016963 
L 81.159796 63.920359 
L 82.755979 94.688197 
L 84.352162 96.968957 
L 85.948345 120.041634 
L 87.544528 140.519804 
L 89.14071 157.727306 
L 90.736893 158.550735 
L 92.333076 158.612204 
L 93.929259 156.7438 
L 95.525442 158.546893 
L 97.121625 156.40444 
L 98.717807 130.57846 
L 100.31399 64.844957 
L 101.910173 102.423057 
L 103.506356 75.92732 
L 105.102539 68.027262 
L 106.698722 77.378247 
L 108.294905 56.268739 
L 109.891087 99.138303 
L 111.48727 99.99759 
L 113.083453 104.302987 
L 114.679636 115.804109 
L 116.275819 102.97884 
L 117.872002 50.409966 
L 119.468184 48.322579 
L 121.064367 63.674483 
L 122.66055 48.106156 
L 124.256733 59.543248 
L 125.852916 111.827827 
L 127.449099 112.562895 
L 129.045281 115.099776 
L 130.641464 115.585125 
L 132.237647 112.27732 
L 133.83383 112.648696 
L 135.430013 127.227114 
L 137.026196 115.586406 
L 138.622379 79.210794 
L 140.218561 112.734496 
L 141.814744 113.546401 
L 143.410927 106.278962 
L 145.00711 112.095474 
L 146.603293 107.012749 
L 148.199476 130.073901 
L 149.795658 139.453059 
L 151.391841 138.90624 
L 152.988024 142.901731 
L 154.584207 138.331248 
L 156.18039 93.364051 
L 157.776573 35.341076 
L 159.372755 63.251883 
L 160.968938 45.924004 
L 164.161304 91.330449 
L 165.757487 110.880179 
L 167.35367 116.868292 
L 168.949853 157.270129 
L 170.546035 157.71578 
L 172.142218 157.142069 
L 173.738401 155.666811 
L 175.334584 119.988304 
L 176.930767 67.2192 
L 178.52695 99.878493 
L 180.123132 117.216617 
L 181.719315 116.339402 
L 183.315498 89.696395 
L 184.911681 108.039795 
L 186.507864 97.173854 
L 188.104047 131.949989 
L 189.70023 145.259326 
L 191.296412 134.308865 
L 192.892595 113.56561 
L 194.488778 101.969723 
L 196.084961 105.017565 
L 197.681144 105.557981 
L 199.277327 61.015945 
L 200.873509 110.476788 
L 202.469692 153.407822 
L 204.065875 158.441884 
L 205.662058 158.462373 
L 207.258241 158.233145 
L 208.854424 156.106058 
L 210.450606 145.678084 
L 212.046789 144.561396 
L 213.642972 148.590182 
L 215.239155 97.611821 
L 216.835338 97.725795 
L 218.431521 114.661808 
L 220.027704 116.025654 
L 221.623886 117.567503 
L 223.220069 108.418854 
L 224.816252 136.49742 
L 226.412435 158.235706 
L 228.008618 156.262292 
L 229.604801 151.627779 
L 231.200983 144.807272 
L 232.797166 114.798833 
L 234.393349 80.855092 
L 235.989532 87.00072 
L 237.585715 138.099458 
L 239.181898 154.066053 
L 240.77808 158.152467 
L 242.374263 157.626138 
L 243.970446 158.298456 
L 245.566629 132.081891 
L 247.162812 157.686326 
L 248.758995 155.591255 
L 250.355178 158.575067 
L 251.95136 109.693057 
L 253.547543 57.047347 
L 255.143726 108.914449 
L 256.739909 85.530584 
L 258.336092 87.279892 
L 259.932275 86.32456 
L 261.528457 107.131845 
L 263.12464 116.362453 
L 264.720823 114.625951 
L 266.317006 114.632354 
L 267.913189 113.469564 
L 269.509372 140.270085 
L 271.105554 142.623839 
L 272.701737 125.526469 
L 274.29792 88.588671 
L 275.894103 121.395234 
L 277.490286 90.122837 
L 279.086469 138.063601 
L 280.682652 157.709377 
L 282.278834 157.284216 
L 283.875017 158.956687 
L 285.4712 158.758193 
L 287.067383 157.026814 
L 288.663566 156.259731 
L 291.855931 94.528122 
L 293.452114 90.764421 
L 295.048297 95.502663 
L 296.64448 68.457546 
L 298.240663 112.244024 
L 299.836846 19.22337 
L 301.433028 44.282267 
L 303.029211 9.626509 
L 304.625394 92.924803 
L 306.221577 108.375314 
L 307.81776 109.301192 
L 309.413943 109.892832 
L 309.413943 109.892832 
" clip-path="url(#p59cbb10f96)" style="fill: none; stroke: #355c7d; stroke-width: 1.5; stroke-linecap: square"/>
   </g>
   <g id="line2d_14">
    <path d="M 42.851408 71.817856 
L 44.447591 63.789737 
L 46.043774 71.406781 
L 47.639957 73.140722 
L 50.832322 123.714412 
L 52.428505 157.960376 
L 54.024688 158.062824 
L 55.620871 154.927901 
L 57.217054 155.888355 
L 58.813236 158.609643 
L 62.005602 76.287171 
L 63.601785 113.742333 
L 65.197968 107.472487 
L 66.794151 70.872769 
L 68.390333 111.361687 
L 69.986516 109.120626 
L 71.582699 136.985331 
L 74.775065 58.832512 
L 76.371248 61.615268 
L 77.967431 103.217033 
L 79.563613 21.017499 
L 81.159796 22.455619 
L 82.755979 71.69876 
L 84.352162 55.176382 
L 85.948345 60.524192 
L 87.544528 36.482096 
L 89.14071 129.308099 
L 90.736893 131.162416 
L 92.333076 132.448144 
L 93.929259 151.863411 
L 95.525442 157.686326 
L 97.121625 157.444292 
L 98.717807 157.915555 
L 100.31399 157.838718 
L 101.910173 110.725226 
L 103.506356 117.202531 
L 105.102539 85.840491 
L 106.698722 144.834165 
L 108.294905 158.228023 
L 109.891087 157.133104 
L 111.48727 127.721428 
L 113.083453 108.814562 
L 114.679636 141.621125 
L 116.275819 118.664983 
L 117.872002 76.016963 
L 119.468184 63.920359 
L 121.064367 94.688197 
L 122.66055 96.968957 
L 124.256733 120.041634 
L 125.852916 140.519804 
L 127.449099 157.727306 
L 129.045281 158.550735 
L 130.641464 158.612204 
L 132.237647 156.7438 
L 133.83383 158.546893 
L 135.430013 156.40444 
L 137.026196 130.57846 
L 138.622379 64.844957 
L 140.218561 102.423057 
L 141.814744 75.92732 
L 143.410927 68.027262 
L 145.00711 77.378247 
L 146.603293 56.268739 
L 148.199476 99.138303 
L 149.795658 99.99759 
L 151.391841 104.302987 
L 152.988024 115.804109 
L 154.584207 102.97884 
L 156.18039 50.409966 
L 157.776573 48.322579 
L 159.372755 63.674483 
L 160.968938 48.106156 
L 162.565121 59.543248 
L 164.161304 111.827827 
L 165.757487 112.562895 
L 167.35367 115.099776 
L 168.949853 115.585125 
L 170.546035 112.27732 
L 172.142218 112.648696 
L 173.738401 127.227114 
L 175.334584 115.586406 
L 176.930767 79.210794 
L 178.52695 112.734496 
L 180.123132 113.546401 
L 181.719315 106.278962 
L 183.315498 112.095474 
L 184.911681 107.012749 
L 186.507864 130.073901 
L 188.104047 139.453059 
L 189.70023 138.90624 
L 191.296412 142.901731 
L 192.892595 138.331248 
L 194.488778 93.364051 
L 196.084961 35.341076 
L 197.681144 63.251883 
L 199.277327 45.924004 
L 202.469692 91.330449 
L 204.065875 110.880179 
L 205.662058 116.868292 
L 207.258241 157.270129 
L 208.854424 157.71578 
L 210.450606 157.142069 
L 212.046789 155.666811 
L 213.642972 119.988304 
L 215.239155 67.2192 
L 216.835338 99.878493 
L 218.431521 117.216617 
L 220.027704 116.339402 
L 221.623886 89.696395 
L 223.220069 108.039795 
L 224.816252 97.173854 
L 226.412435 131.949989 
L 228.008618 145.259326 
L 229.604801 134.308865 
L 231.200983 113.56561 
L 232.797166 101.969723 
L 234.393349 105.017565 
L 235.989532 105.557981 
L 237.585715 61.015945 
L 239.181898 110.476788 
L 240.77808 153.407822 
L 242.374263 158.441884 
L 243.970446 158.462373 
L 245.566629 158.233145 
L 247.162812 156.106058 
L 248.758995 145.678084 
L 250.355178 144.561396 
L 251.95136 148.590182 
L 253.547543 97.611821 
L 255.143726 97.725795 
L 256.739909 114.661808 
L 258.336092 116.025654 
L 259.932275 117.567503 
L 261.528457 108.418854 
L 263.12464 136.49742 
L 264.720823 158.235706 
L 266.317006 156.262292 
L 267.913189 151.627779 
L 269.509372 144.807272 
L 271.105554 114.798833 
L 272.701737 80.855092 
L 274.29792 87.00072 
L 275.894103 138.099458 
L 277.490286 154.066053 
L 279.086469 158.152467 
L 280.682652 157.626138 
L 282.278834 158.298456 
L 283.875017 132.081891 
L 285.4712 157.686326 
L 287.067383 155.591255 
L 288.663566 158.575067 
L 290.259749 109.693057 
L 291.855931 57.047347 
L 293.452114 108.914449 
L 295.048297 85.530584 
L 296.64448 87.279892 
L 298.240663 86.32456 
L 299.836846 107.131845 
L 301.433028 116.362453 
L 303.029211 114.625951 
L 304.625394 114.632354 
L 306.221577 113.469564 
L 307.81776 140.270085 
L 309.413943 142.623839 
L 309.413943 142.623839 
" clip-path="url(#p59cbb10f96)" style="fill: none; stroke: #b26e3b; stroke-width: 1.1; stroke-linecap: square"/>
   </g>
   <g id="line2d_15">
    <path d="M 42.851408 36.872574 
L 44.447591 39.789143 
L 46.043774 80.212275 
L 47.639957 67.85032 
L 49.236139 87.614261 
L 50.832322 78.272535 
L 52.428505 146.404168 
L 54.024688 137.423766 
L 55.620871 138.143032 
L 57.217054 151.736501 
L 58.813236 154.830479 
L 60.409419 141.87819 
L 62.005602 141.453243 
L 63.601785 150.882277 
L 65.197968 113.260311 
L 66.794151 116.207378 
L 68.390333 96.730637 
L 69.986516 139.948575 
L 71.582699 144.605725 
L 73.178882 134.554299 
L 74.775065 110.258461 
L 76.371248 105.152911 
L 77.967431 134.555502 
L 79.563613 93.470847 
L 81.159796 71.946101 
L 82.755979 74.060955 
L 84.352162 93.012535 
L 85.948345 96.433076 
L 87.544528 113.78266 
L 89.14071 148.389452 
L 90.736893 152.223244 
L 92.333076 149.753547 
L 93.929259 152.5125 
L 95.525442 153.679955 
L 97.121625 154.705179 
L 98.717807 145.699605 
L 100.31399 124.882359 
L 101.910173 78.220563 
L 103.506356 113.001938 
L 105.102539 86.404965 
L 106.698722 96.195892 
L 108.294905 101.553804 
L 109.891087 88.391939 
L 111.48727 117.084298 
L 113.083453 112.678389 
L 114.679636 123.363869 
L 116.275819 123.164151 
L 117.872002 104.458788 
L 119.468184 59.032133 
L 121.064367 67.461657 
L 122.66055 85.016057 
L 124.256733 70.923099 
L 125.852916 84.941619 
L 127.449099 124.686182 
L 129.045281 123.067012 
L 130.641464 128.828887 
L 132.237647 128.914366 
L 133.83383 127.301569 
L 135.430013 127.256412 
L 137.026196 121.617321 
L 138.622379 102.535566 
L 140.218561 86.787772 
L 141.814744 110.784533 
L 143.410927 109.653162 
L 145.00711 107.023613 
L 146.603293 107.200722 
L 148.199476 112.846839 
L 149.795658 125.136971 
L 151.391841 130.669019 
L 152.988024 131.722667 
L 154.584207 135.738798 
L 156.18039 116.064606 
L 157.776573 82.098713 
L 159.372755 51.836547 
L 160.968938 73.353986 
L 162.565121 65.09981 
L 164.161304 93.052073 
L 165.757487 103.148733 
L 167.35367 115.75819 
L 168.949853 118.322697 
L 170.546035 150.866939 
L 172.142218 148.704023 
L 173.738401 150.901506 
L 175.334584 138.959759 
L 176.930767 100.254301 
L 178.52695 85.374686 
L 180.123132 106.122326 
L 181.719315 114.599082 
L 183.315498 117.42513 
L 184.911681 87.232655 
L 186.507864 109.117472 
L 188.104047 104.277626 
L 191.296412 136.348027 
L 192.892595 127.385684 
L 194.488778 108.553677 
L 196.084961 83.975076 
L 197.681144 98.455697 
L 199.277327 81.896733 
L 200.873509 67.372321 
L 202.469692 113.729121 
L 204.065875 143.542358 
L 205.662058 143.104522 
L 207.258241 150.134919 
L 208.854424 147.145918 
L 210.450606 148.497451 
L 212.046789 145.636771 
L 213.642972 127.051513 
L 215.239155 121.006704 
L 216.835338 100.236724 
L 218.431521 107.925806 
L 220.027704 117.494971 
L 221.623886 112.33438 
L 223.220069 118.835723 
L 224.816252 109.180032 
L 226.412435 136.041854 
L 228.008618 147.762544 
L 229.604801 142.056954 
L 231.200983 136.818885 
L 232.797166 137.234541 
L 234.393349 105.113324 
L 235.989532 81.97061 
L 237.585715 85.415075 
L 239.181898 133.240831 
L 240.77808 146.735131 
L 242.374263 146.031316 
L 243.970446 145.847722 
L 245.566629 150.072747 
L 247.162812 135.933728 
L 248.758995 153.325184 
L 250.355178 150.563241 
L 251.95136 149.646569 
L 253.547543 100.773187 
L 255.143726 75.358366 
L 256.739909 116.077464 
L 258.336092 97.727999 
L 259.932275 100.809805 
L 261.528457 95.917595 
L 263.12464 116.50814 
L 264.720823 128.237665 
L 266.317006 117.890059 
L 267.913189 125.236681 
L 269.509372 124.854034 
L 271.105554 135.844289 
L 272.701737 119.402723 
L 274.29792 110.00875 
L 275.894103 97.237231 
L 277.490286 121.674848 
L 279.086469 102.304821 
L 280.682652 140.344393 
L 282.278834 155.565392 
L 283.875017 148.805573 
L 285.4712 156.045942 
L 287.067383 153.792386 
L 288.663566 153.815116 
L 290.259749 137.358663 
L 291.855931 103.783329 
L 293.452114 104.754242 
L 295.048297 95.681341 
L 296.64448 94.964701 
L 298.240663 83.062499 
L 299.836846 117.858419 
L 301.433028 57.600901 
L 303.029211 73.968876 
L 304.625394 42.618574 
L 306.221577 100.899032 
L 307.81776 116.787949 
L 309.413943 101.133811 
L 309.413943 101.133811 
" clip-path="url(#p59cbb10f96)" style="fill: none; stroke: #4f7c6e; stroke-width: 1.1; stroke-linecap: square"/>
   </g>
   <g id="patch_3">
    <path d="M 29.523281 166.423196 
L 29.523281 2.16 
" style="fill: none; stroke: #000000; stroke-width: 0.8; stroke-linejoin: miter; stroke-linecap: square"/>
   </g>
   <g id="patch_4">
    <path d="M 29.523281 166.423196 
L 322.742069 166.423196 
" style="fill: none; stroke: #000000; stroke-width: 0.8; stroke-linejoin: miter; stroke-linecap: square"/>
   </g>
   <g id="text_15">
    <!-- (a) -->
    <g transform="translate(169.16705 206.873492) scale(0.1 -0.1)">
     <use xlink:href="#DejaVuSans-b"/>
     <use xlink:href="#DejaVuSans-44" transform="translate(39.015625 0)"/>
     <use xlink:href="#DejaVuSans-c" transform="translate(100.296875 0)"/>
    </g>
   </g>
   <g id="legend_1">
    <g id="line2d_16">
     <path d="M 226.859569 11.328906 
L 233.859569 11.328906 
L 240.859569 11.328906 
" style="fill: none; stroke: #355c7d; stroke-width: 1.5; stroke-linecap: square"/>
    </g>
    <g id="text_16">
     <!-- actual -->
     <g transform="translate(246.459569 13.778906) scale(0.07 -0.07)">
      <use xlink:href="#DejaVuSans-44"/>
      <use xlink:href="#DejaVuSans-46" transform="translate(61.28125 0)"/>
      <use xlink:href="#DejaVuSans-57" transform="translate(116.265625 0)"/>
      <use xlink:href="#DejaVuSans-58" transform="translate(155.46875 0)"/>
      <use xlink:href="#DejaVuSans-44" transform="translate(218.84375 0)"/>
      <use xlink:href="#DejaVuSans-4f" transform="translate(280.125 0)"/>
     </g>
    </g>
    <g id="line2d_17">
     <path d="M 226.859569 21.829453 
L 233.859569 21.829453 
L 240.859569 21.829453 
" style="fill: none; stroke: #b26e3b; stroke-width: 1.1; stroke-linecap: square"/>
    </g>
    <g id="text_17">
     <!-- 24 h seasonal naive -->
     <g transform="translate(246.459569 24.279453) scale(0.07 -0.07)">
      <defs>
       <path id="DejaVuSans-4b" d="M 3513 2113 
L 3513 0 
L 2938 0 
L 2938 2094 
Q 2938 2591 2744 2837 
Q 2550 3084 2163 3084 
Q 1697 3084 1428 2787 
Q 1159 2491 1159 1978 
L 1159 0 
L 581 0 
L 581 4863 
L 1159 4863 
L 1159 2956 
Q 1366 3272 1645 3428 
Q 1925 3584 2291 3584 
Q 2894 3584 3203 3211 
Q 3513 2838 3513 2113 
z
" transform="scale(0.015625)"/>
       <path id="DejaVuSans-56" d="M 2834 3397 
L 2834 2853 
Q 2591 2978 2328 3040 
Q 2066 3103 1784 3103 
Q 1356 3103 1142 2972 
Q 928 2841 928 2578 
Q 928 2378 1081 2264 
Q 1234 2150 1697 2047 
L 1894 2003 
Q 2506 1872 2764 1633 
Q 3022 1394 3022 966 
Q 3022 478 2636 193 
Q 2250 -91 1575 -91 
Q 1294 -91 989 -36 
Q 684 19 347 128 
L 347 722 
Q 666 556 975 473 
Q 1284 391 1588 391 
Q 1994 391 2212 530 
Q 2431 669 2431 922 
Q 2431 1156 2273 1281 
Q 2116 1406 1581 1522 
L 1381 1569 
Q 847 1681 609 1914 
Q 372 2147 372 2553 
Q 372 3047 722 3315 
Q 1072 3584 1716 3584 
Q 2034 3584 2315 3537 
Q 2597 3491 2834 3397 
z
" transform="scale(0.015625)"/>
      </defs>
      <use xlink:href="#DejaVuSans-15"/>
      <use xlink:href="#DejaVuSans-17" transform="translate(63.625 0)"/>
      <use xlink:href="#DejaVuSans-3" transform="translate(127.25 0)"/>
      <use xlink:href="#DejaVuSans-4b" transform="translate(159.03125 0)"/>
      <use xlink:href="#DejaVuSans-3" transform="translate(222.40625 0)"/>
      <use xlink:href="#DejaVuSans-56" transform="translate(254.1875 0)"/>
      <use xlink:href="#DejaVuSans-48" transform="translate(306.28125 0)"/>
      <use xlink:href="#DejaVuSans-44" transform="translate(367.8125 0)"/>
      <use xlink:href="#DejaVuSans-56" transform="translate(429.09375 0)"/>
      <use xlink:href="#DejaVuSans-52" transform="translate(481.1875 0)"/>
      <use xlink:href="#DejaVuSans-51" transform="translate(542.375 0)"/>
      <use xlink:href="#DejaVuSans-44" transform="translate(605.75 0)"/>
      <use xlink:href="#DejaVuSans-4f" transform="translate(667.03125 0)"/>
      <use xlink:href="#DejaVuSans-3" transform="translate(694.8125 0)"/>
      <use xlink:href="#DejaVuSans-51" transform="translate(726.59375 0)"/>
      <use xlink:href="#DejaVuSans-44" transform="translate(789.96875 0)"/>
      <use xlink:href="#DejaVuSans-4c" transform="translate(851.25 0)"/>
      <use xlink:href="#DejaVuSans-59" transform="translate(879.03125 0)"/>
      <use xlink:href="#DejaVuSans-48" transform="translate(938.21875 0)"/>
     </g>
    </g>
    <g id="line2d_18">
     <path d="M 226.859569 32.33 
L 233.859569 32.33 
L 240.859569 32.33 
" style="fill: none; stroke: #4f7c6e; stroke-width: 1.1; stroke-linecap: square"/>
    </g>
    <g id="text_18">
     <!-- ridge lag model -->
     <g transform="translate(246.459569 34.78) scale(0.07 -0.07)">
      <defs>
       <path id="DejaVuSans-47" d="M 2906 2969 
L 2906 4863 
L 3481 4863 
L 3481 0 
L 2906 0 
L 2906 525 
Q 2725 213 2448 61 
Q 2172 -91 1784 -91 
Q 1150 -91 751 415 
Q 353 922 353 1747 
Q 353 2572 751 3078 
Q 1150 3584 1784 3584 
Q 2172 3584 2448 3432 
Q 2725 3281 2906 2969 
z
M 947 1747 
Q 947 1113 1208 752 
Q 1469 391 1925 391 
Q 2381 391 2643 752 
Q 2906 1113 2906 1747 
Q 2906 2381 2643 2742 
Q 2381 3103 1925 3103 
Q 1469 3103 1208 2742 
Q 947 2381 947 1747 
z
" transform="scale(0.015625)"/>
       <path id="DejaVuSans-4a" d="M 2906 1791 
Q 2906 2416 2648 2759 
Q 2391 3103 1925 3103 
Q 1463 3103 1205 2759 
Q 947 2416 947 1791 
Q 947 1169 1205 825 
Q 1463 481 1925 481 
Q 2391 481 2648 825 
Q 2906 1169 2906 1791 
z
M 3481 434 
Q 3481 -459 3084 -895 
Q 2688 -1331 1869 -1331 
Q 1566 -1331 1297 -1286 
Q 1028 -1241 775 -1147 
L 775 -588 
Q 1028 -725 1275 -790 
Q 1522 -856 1778 -856 
Q 2344 -856 2625 -561 
Q 2906 -266 2906 331 
L 2906 616 
Q 2728 306 2450 153 
Q 2172 0 1784 0 
Q 1141 0 747 490 
Q 353 981 353 1791 
Q 353 2603 747 3093 
Q 1141 3584 1784 3584 
Q 2172 3584 2450 3431 
Q 2728 3278 2906 2969 
L 2906 3500 
L 3481 3500 
L 3481 434 
z
" transform="scale(0.015625)"/>
      </defs>
      <use xlink:href="#DejaVuSans-55"/>
      <use xlink:href="#DejaVuSans-4c" transform="translate(41.109375 0)"/>
      <use xlink:href="#DejaVuSans-47" transform="translate(68.890625 0)"/>
      <use xlink:href="#DejaVuSans-4a" transform="translate(132.375 0)"/>
      <use xlink:href="#DejaVuSans-48" transform="translate(195.859375 0)"/>
      <use xlink:href="#DejaVuSans-3" transform="translate(257.390625 0)"/>
      <use xlink:href="#DejaVuSans-4f" transform="translate(289.171875 0)"/>
      <use xlink:href="#DejaVuSans-44" transform="translate(316.953125 0)"/>
      <use xlink:href="#DejaVuSans-4a" transform="translate(378.234375 0)"/>
      <use xlink:href="#DejaVuSans-3" transform="translate(441.71875 0)"/>
      <use xlink:href="#DejaVuSans-50" transform="translate(473.5 0)"/>
      <use xlink:href="#DejaVuSans-52" transform="translate(570.90625 0)"/>
      <use xlink:href="#DejaVuSans-47" transform="translate(632.09375 0)"/>
      <use xlink:href="#DejaVuSans-48" transform="translate(695.578125 0)"/>
      <use xlink:href="#DejaVuSans-4f" transform="translate(757.109375 0)"/>
     </g>
    </g>
   </g>
  </g>
  <g id="axes_2">
   <g id="patch_5">
    <path d="M 411.942149 166.423196 
L 705.160938 166.423196 
L 705.160938 2.16 
L 411.942149 2.16 
z
" style="fill: #ffffff"/>
   </g>
   <g id="matplotlib.axis_3">
    <g id="xtick_9">
     <g id="line2d_19">
      <g>
       <use xlink:href="#m0e24c3ece5" x="460.811947" y="166.423196" style="stroke: #000000; stroke-width: 0.8"/>
      </g>
     </g>
     <g id="text_19">
      <!-- 1 h -->
      <g transform="translate(452.872885 182.02261) scale(0.1 -0.1)">
       <use xlink:href="#DejaVuSans-14"/>
       <use xlink:href="#DejaVuSans-3" transform="translate(63.625 0)"/>
       <use xlink:href="#DejaVuSans-4b" transform="translate(95.40625 0)"/>
      </g>
      <!-- persistence -->
      <g transform="translate(431.87601 194.025345) scale(0.1 -0.1)">
       <use xlink:href="#DejaVuSans-53"/>
       <use xlink:href="#DejaVuSans-48" transform="translate(63.484375 0)"/>
       <use xlink:href="#DejaVuSans-55" transform="translate(125.015625 0)"/>
       <use xlink:href="#DejaVuSans-56" transform="translate(166.125 0)"/>
       <use xlink:href="#DejaVuSans-4c" transform="translate(218.21875 0)"/>
       <use xlink:href="#DejaVuSans-56" transform="translate(246 0)"/>
       <use xlink:href="#DejaVuSans-57" transform="translate(298.09375 0)"/>
       <use xlink:href="#DejaVuSans-48" transform="translate(337.296875 0)"/>
       <use xlink:href="#DejaVuSans-51" transform="translate(398.828125 0)"/>
       <use xlink:href="#DejaVuSans-46" transform="translate(462.203125 0)"/>
       <use xlink:href="#DejaVuSans-48" transform="translate(517.1875 0)"/>
      </g>
     </g>
    </g>
    <g id="xtick_10">
     <g id="line2d_20">
      <g>
       <use xlink:href="#m0e24c3ece5" x="558.551543" y="166.423196" style="stroke: #000000; stroke-width: 0.8"/>
      </g>
     </g>
     <g id="text_20">
      <!-- 24 h -->
      <g transform="translate(547.431231 182.02261) scale(0.1 -0.1)">
       <use xlink:href="#DejaVuSans-15"/>
       <use xlink:href="#DejaVuSans-17" transform="translate(63.625 0)"/>
       <use xlink:href="#DejaVuSans-3" transform="translate(127.25 0)"/>
       <use xlink:href="#DejaVuSans-4b" transform="translate(159.03125 0)"/>
      </g>
      <!-- seasonal -->
      <g transform="translate(536.520293 194.025345) scale(0.1 -0.1)">
       <use xlink:href="#DejaVuSans-56"/>
       <use xlink:href="#DejaVuSans-48" transform="translate(52.09375 0)"/>
       <use xlink:href="#DejaVuSans-44" transform="translate(113.625 0)"/>
       <use xlink:href="#DejaVuSans-56" transform="translate(174.90625 0)"/>
       <use xlink:href="#DejaVuSans-52" transform="translate(227 0)"/>
       <use xlink:href="#DejaVuSans-51" transform="translate(288.1875 0)"/>
       <use xlink:href="#DejaVuSans-44" transform="translate(351.5625 0)"/>
       <use xlink:href="#DejaVuSans-4f" transform="translate(412.84375 0)"/>
      </g>
     </g>
    </g>
    <g id="xtick_11">
     <g id="line2d_21">
      <g>
       <use xlink:href="#m0e24c3ece5" x="656.291139" y="166.423196" style="stroke: #000000; stroke-width: 0.8"/>
      </g>
     </g>
     <g id="text_21">
      <!-- ridge -->
      <g transform="translate(643.421608 182.02261) scale(0.1 -0.1)">
       <use xlink:href="#DejaVuSans-55"/>
       <use xlink:href="#DejaVuSans-4c" transform="translate(41.109375 0)"/>
       <use xlink:href="#DejaVuSans-47" transform="translate(68.890625 0)"/>
       <use xlink:href="#DejaVuSans-4a" transform="translate(132.375 0)"/>
       <use xlink:href="#DejaVuSans-48" transform="translate(195.859375 0)"/>
      </g>
      <!-- lags -->
      <g transform="translate(646.059108 194.025345) scale(0.1 -0.1)">
       <use xlink:href="#DejaVuSans-4f"/>
       <use xlink:href="#DejaVuSans-44" transform="translate(27.78125 0)"/>
       <use xlink:href="#DejaVuSans-4a" transform="translate(89.0625 0)"/>
       <use xlink:href="#DejaVuSans-56" transform="translate(152.546875 0)"/>
      </g>
     </g>
    </g>
   </g>
   <g id="matplotlib.axis_4">
    <g id="ytick_5">
     <g id="line2d_22">
      <g>
       <use xlink:href="#m90ab23086f" x="411.942149" y="158.956687" style="stroke: #000000; stroke-width: 0.8"/>
      </g>
     </g>
     <g id="text_22">
      <!-- 0.0 -->
      <g transform="translate(389.039024 162.755515) scale(0.1 -0.1)">
       <defs>
        <path id="DejaVuSans-11" d="M 684 794 
L 1344 794 
L 1344 0 
L 684 0 
L 684 794 
z
" transform="scale(0.015625)"/>
       </defs>
       <use xlink:href="#DejaVuSans-13"/>
       <use xlink:href="#DejaVuSans-11" transform="translate(63.625 0)"/>
       <use xlink:href="#DejaVuSans-13" transform="translate(95.40625 0)"/>
      </g>
     </g>
    </g>
    <g id="ytick_6">
     <g id="line2d_23">
      <g>
       <use xlink:href="#m90ab23086f" x="411.942149" y="119.50701" style="stroke: #000000; stroke-width: 0.8"/>
      </g>
     </g>
     <g id="text_23">
      <!-- 0.5 -->
      <g transform="translate(389.039024 123.305838) scale(0.1 -0.1)">
       <defs>
        <path id="DejaVuSans-18" d="M 691 4666 
L 3169 4666 
L 3169 4134 
L 1269 4134 
L 1269 2991 
Q 1406 3038 1543 3061 
Q 1681 3084 1819 3084 
Q 2600 3084 3056 2656 
Q 3513 2228 3513 1497 
Q 3513 744 3044 326 
Q 2575 -91 1722 -91 
Q 1428 -91 1123 -41 
Q 819 9 494 109 
L 494 744 
Q 775 591 1075 516 
Q 1375 441 1709 441 
Q 2250 441 2565 725 
Q 2881 1009 2881 1497 
Q 2881 1984 2565 2268 
Q 2250 2553 1709 2553 
Q 1456 2553 1204 2497 
Q 953 2441 691 2322 
L 691 4666 
z
" transform="scale(0.015625)"/>
       </defs>
       <use xlink:href="#DejaVuSans-13"/>
       <use xlink:href="#DejaVuSans-11" transform="translate(63.625 0)"/>
       <use xlink:href="#DejaVuSans-18" transform="translate(95.40625 0)"/>
      </g>
     </g>
    </g>
    <g id="ytick_7">
     <g id="line2d_24">
      <g>
       <use xlink:href="#m90ab23086f" x="411.942149" y="80.057333" style="stroke: #000000; stroke-width: 0.8"/>
      </g>
     </g>
     <g id="text_24">
      <!-- 1.0 -->
      <g transform="translate(389.039024 83.856161) scale(0.1 -0.1)">
       <use xlink:href="#DejaVuSans-14"/>
       <use xlink:href="#DejaVuSans-11" transform="translate(63.625 0)"/>
       <use xlink:href="#DejaVuSans-13" transform="translate(95.40625 0)"/>
      </g>
     </g>
    </g>
    <g id="ytick_8">
     <g id="line2d_25">
      <g>
       <use xlink:href="#m90ab23086f" x="411.942149" y="40.607655" style="stroke: #000000; stroke-width: 0.8"/>
      </g>
     </g>
     <g id="text_25">
      <!-- 1.5 -->
      <g transform="translate(389.039024 44.406484) scale(0.1 -0.1)">
       <use xlink:href="#DejaVuSans-14"/>
       <use xlink:href="#DejaVuSans-11" transform="translate(63.625 0)"/>
       <use xlink:href="#DejaVuSans-18" transform="translate(95.40625 0)"/>
      </g>
     </g>
    </g>
    <g id="text_26">
     <!-- Absolute forecast error (kW) -->
     <g transform="translate(382.636681 154.976754) rotate(-90) scale(0.1 -0.1)">
      <defs>
       <path id="DejaVuSans-24" d="M 2188 4044 
L 1331 1722 
L 3047 1722 
L 2188 4044 
z
M 1831 4666 
L 2547 4666 
L 4325 0 
L 3669 0 
L 3244 1197 
L 1141 1197 
L 716 0 
L 50 0 
L 1831 4666 
z
" transform="scale(0.015625)"/>
       <path id="DejaVuSans-45" d="M 3116 1747 
Q 3116 2381 2855 2742 
Q 2594 3103 2138 3103 
Q 1681 3103 1420 2742 
Q 1159 2381 1159 1747 
Q 1159 1113 1420 752 
Q 1681 391 2138 391 
Q 2594 391 2855 752 
Q 3116 1113 3116 1747 
z
M 1159 2969 
Q 1341 3281 1617 3432 
Q 1894 3584 2278 3584 
Q 2916 3584 3314 3078 
Q 3713 2572 3713 1747 
Q 3713 922 3314 415 
Q 2916 -91 2278 -91 
Q 1894 -91 1617 61 
Q 1341 213 1159 525 
L 1159 0 
L 581 0 
L 581 4863 
L 1159 4863 
L 1159 2969 
z
" transform="scale(0.015625)"/>
       <path id="DejaVuSans-49" d="M 2375 4863 
L 2375 4384 
L 1825 4384 
Q 1516 4384 1395 4259 
Q 1275 4134 1275 3809 
L 1275 3500 
L 2222 3500 
L 2222 3053 
L 1275 3053 
L 1275 0 
L 697 0 
L 697 3053 
L 147 3053 
L 147 3500 
L 697 3500 
L 697 3744 
Q 697 4328 969 4595 
Q 1241 4863 1831 4863 
L 2375 4863 
z
" transform="scale(0.015625)"/>
      </defs>
      <use xlink:href="#DejaVuSans-24"/>
      <use xlink:href="#DejaVuSans-45" transform="translate(68.40625 0)"/>
      <use xlink:href="#DejaVuSans-56" transform="translate(131.890625 0)"/>
      <use xlink:href="#DejaVuSans-52" transform="translate(183.984375 0)"/>
      <use xlink:href="#DejaVuSans-4f" transform="translate(245.171875 0)"/>
      <use xlink:href="#DejaVuSans-58" transform="translate(272.953125 0)"/>
      <use xlink:href="#DejaVuSans-57" transform="translate(336.328125 0)"/>
      <use xlink:href="#DejaVuSans-48" transform="translate(375.53125 0)"/>
      <use xlink:href="#DejaVuSans-3" transform="translate(437.0625 0)"/>
      <use xlink:href="#DejaVuSans-49" transform="translate(468.84375 0)"/>
      <use xlink:href="#DejaVuSans-52" transform="translate(504.046875 0)"/>
      <use xlink:href="#DejaVuSans-55" transform="translate(565.234375 0)"/>
      <use xlink:href="#DejaVuSans-48" transform="translate(604.140625 0)"/>
      <use xlink:href="#DejaVuSans-46" transform="translate(665.671875 0)"/>
      <use xlink:href="#DejaVuSans-44" transform="translate(720.65625 0)"/>
      <use xlink:href="#DejaVuSans-56" transform="translate(781.9375 0)"/>
      <use xlink:href="#DejaVuSans-57" transform="translate(834.03125 0)"/>
      <use xlink:href="#DejaVuSans-3" transform="translate(873.234375 0)"/>
      <use xlink:href="#DejaVuSans-48" transform="translate(905.015625 0)"/>
      <use xlink:href="#DejaVuSans-55" transform="translate(966.546875 0)"/>
      <use xlink:href="#DejaVuSans-55" transform="translate(1005.90625 0)"/>
      <use xlink:href="#DejaVuSans-52" transform="translate(1044.8125 0)"/>
      <use xlink:href="#DejaVuSans-55" transform="translate(1106 0)"/>
      <use xlink:href="#DejaVuSans-3" transform="translate(1147.109375 0)"/>
      <use xlink:href="#DejaVuSans-b" transform="translate(1178.890625 0)"/>
      <use xlink:href="#DejaVuSans-4e" transform="translate(1217.90625 0)"/>
      <use xlink:href="#DejaVuSans-3a" transform="translate(1275.8125 0)"/>
      <use xlink:href="#DejaVuSans-c" transform="translate(1374.6875 0)"/>
     </g>
    </g>
   </g>
   <g id="patch_6">
    <path d="M 446.151008 154.888111 
L 475.472887 154.888111 
L 475.472887 111.020069 
L 446.151008 111.020069 
L 446.151008 154.888111 
z
" clip-path="url(#pfa4b40f4f3)" style="fill: #dde5eb; stroke: #555555; stroke-linejoin: miter"/>
   </g>
   <g id="line2d_26">
    <path d="M 460.811947 154.888111 
L 460.811947 158.951427 
" clip-path="url(#pfa4b40f4f3)" style="fill: none; stroke: #000000; stroke-linecap: square"/>
   </g>
   <g id="line2d_27">
    <path d="M 460.811947 111.020069 
L 460.811947 45.530975 
" clip-path="url(#pfa4b40f4f3)" style="fill: none; stroke: #000000; stroke-linecap: square"/>
   </g>
   <g id="line2d_28">
    <path d="M 453.481478 158.951427 
L 468.142417 158.951427 
" clip-path="url(#pfa4b40f4f3)" style="fill: none; stroke: #000000; stroke-linecap: square"/>
   </g>
   <g id="line2d_29">
    <path d="M 453.481478 45.530975 
L 468.142417 45.530975 
" clip-path="url(#pfa4b40f4f3)" style="fill: none; stroke: #000000; stroke-linecap: square"/>
   </g>
   <g id="patch_7">
    <path d="M 543.890604 152.287062 
L 573.212483 152.287062 
L 573.212483 95.174449 
L 543.890604 95.174449 
L 543.890604 152.287062 
z
" clip-path="url(#pfa4b40f4f3)" style="fill: #efe0d4; stroke: #555555; stroke-linejoin: miter"/>
   </g>
   <g id="line2d_30">
    <path d="M 558.551543 152.287062 
L 558.551543 158.956687 
" clip-path="url(#pfa4b40f4f3)" style="fill: none; stroke: #000000; stroke-linecap: square"/>
   </g>
   <g id="line2d_31">
    <path d="M 558.551543 95.174449 
L 558.551543 9.626509 
" clip-path="url(#pfa4b40f4f3)" style="fill: none; stroke: #000000; stroke-linecap: square"/>
   </g>
   <g id="line2d_32">
    <path d="M 551.221074 158.956687 
L 565.882013 158.956687 
" clip-path="url(#pfa4b40f4f3)" style="fill: none; stroke: #000000; stroke-linecap: square"/>
   </g>
   <g id="line2d_33">
    <path d="M 551.221074 9.626509 
L 565.882013 9.626509 
" clip-path="url(#pfa4b40f4f3)" style="fill: none; stroke: #000000; stroke-linecap: square"/>
   </g>
   <g id="patch_8">
    <path d="M 641.6302 149.521021 
L 670.952079 149.521021 
L 670.952079 118.736706 
L 641.6302 118.736706 
L 641.6302 149.521021 
z
" clip-path="url(#pfa4b40f4f3)" style="fill: #dce8e2; stroke: #555555; stroke-linejoin: miter"/>
   </g>
   <g id="line2d_34">
    <path d="M 656.291139 149.521021 
L 656.291139 158.954128 
" clip-path="url(#pfa4b40f4f3)" style="fill: none; stroke: #000000; stroke-linecap: square"/>
   </g>
   <g id="line2d_35">
    <path d="M 656.291139 118.736706 
L 656.291139 72.755393 
" clip-path="url(#pfa4b40f4f3)" style="fill: none; stroke: #000000; stroke-linecap: square"/>
   </g>
   <g id="line2d_36">
    <path d="M 648.96067 158.954128 
L 663.621609 158.954128 
" clip-path="url(#pfa4b40f4f3)" style="fill: none; stroke: #000000; stroke-linecap: square"/>
   </g>
   <g id="line2d_37">
    <path d="M 648.96067 72.755393 
L 663.621609 72.755393 
" clip-path="url(#pfa4b40f4f3)" style="fill: none; stroke: #000000; stroke-linecap: square"/>
   </g>
   <g id="line2d_38">
    <path d="M 446.151008 141.438401 
L 475.472887 141.438401 
" clip-path="url(#pfa4b40f4f3)" style="fill: none; stroke: #b26e3b; stroke-width: 1.7"/>
   </g>
   <g id="line2d_39">
    <path d="M 543.890604 131.483932 
L 573.212483 131.483932 
" clip-path="url(#pfa4b40f4f3)" style="fill: none; stroke: #b26e3b; stroke-width: 1.7"/>
   </g>
   <g id="line2d_40">
    <path d="M 641.6302 138.786757 
L 670.952079 138.786757 
" clip-path="url(#pfa4b40f4f3)" style="fill: none; stroke: #b26e3b; stroke-width: 1.7"/>
   </g>
   <g id="patch_9">
    <path d="M 411.942149 166.423196 
L 411.942149 2.16 
" style="fill: none; stroke: #000000; stroke-width: 0.8; stroke-linejoin: miter; stroke-linecap: square"/>
   </g>
   <g id="patch_10">
    <path d="M 411.942149 166.423196 
L 705.160938 166.423196 
" style="fill: none; stroke: #000000; stroke-width: 0.8; stroke-linejoin: miter; stroke-linecap: square"/>
   </g>
   <g id="text_27">
    <!-- (b) -->
    <g transform="translate(551.475762 206.874273) scale(0.1 -0.1)">
     <use xlink:href="#DejaVuSans-b"/>
     <use xlink:href="#DejaVuSans-45" transform="translate(39.015625 0)"/>
     <use xlink:href="#DejaVuSans-c" transform="translate(102.5 0)"/>
    </g>
   </g>
  </g>
 </g>
 <defs>
  <clipPath id="p59cbb10f96">
   <rect x="29.523281" y="2.16" width="293.218788" height="164.263196"/>
  </clipPath>
  <clipPath id="pfa4b40f4f3">
   <rect x="411.942149" y="2.16" width="293.218788" height="164.263196"/>
  </clipPath>
 </defs>
</svg>
